<svg xmlns="http://www.w3.org/2000/svg" viewBox="0 0 339 339"><defs><style>.cls-1{opacity:0.71;}.cls-2{fill:#fff;}</style></defs><title>Asset 1</title><g id="Layer_2" data-name="Layer 2"><g id="SELECTION"><g class="cls-1"><path class="cls-2" d="M169.5,81.86a87.61,87.61,0,1,0,87.64,87.64A87.62,87.62,0,0,0,169.5,81.86Zm0,167.09A79.49,79.49,0,1,1,249,169.5,79.49,79.49,0,0,1,169.5,249Z"/><path class="cls-2" d="M169.5,0A169.5,169.5,0,0,0,0,169.5C0,263.08,75.92,339,169.5,339a169.5,169.5,0,0,0,0-339Zm0,317.78A148.32,148.32,0,1,1,317.85,169.5C317.85,251.39,251.38,317.78,169.5,317.78Z"/><polygon class="cls-2" points="178.29 70.53 185.1 31.62 153.97 31.62 160.78 70.53 178.29 70.53"/><polygon class="cls-2" points="160.78 268.4 153.97 307.31 185.1 307.31 178.29 268.4 160.78 268.4"/><polygon class="cls-2" points="139.76 74.72 131.16 36.15 102.4 48.07 123.59 81.41 139.76 74.72"/><polygon class="cls-2" points="199.31 264.22 207.91 302.78 236.67 290.86 215.48 257.52 199.31 264.22"/><polygon class="cls-2" points="105.77 93.32 83.07 60.98 61.05 83 93.39 105.7 105.77 93.32"/><polygon class="cls-2" points="233.3 245.61 256 277.95 278.02 255.93 245.68 233.23 233.3 245.61"/><polygon class="cls-2" points="81.48 123.52 48.14 102.33 36.22 131.09 74.79 139.69 81.48 123.52"/><polygon class="cls-2" points="257.59 215.41 290.93 236.6 302.85 207.84 264.29 199.24 257.59 215.41"/><polygon class="cls-2" points="70.6 160.71 31.69 153.9 31.69 185.03 70.6 178.22 70.6 160.71"/><polygon class="cls-2" points="268.47 160.71 268.47 178.22 307.38 185.03 307.38 153.9 268.47 160.71"/><polygon class="cls-2" points="74.79 199.24 36.22 207.84 48.14 236.6 81.48 215.41 74.79 199.24"/><polygon class="cls-2" points="264.29 139.69 302.85 131.09 290.93 102.33 257.59 123.52 264.29 139.69"/><polygon class="cls-2" points="93.39 233.23 61.05 255.93 83.07 277.95 105.77 245.61 93.39 233.23"/><polygon class="cls-2" points="245.68 105.7 278.02 83 256 60.98 233.3 93.32 245.68 105.7"/><polygon class="cls-2" points="102.4 290.86 131.16 302.78 139.76 264.22 123.59 257.52 102.4 290.86"/><polygon class="cls-2" points="236.67 48.07 207.91 36.15 199.31 74.72 215.48 81.41 236.67 48.07"/><path class="cls-2" d="M211,142.34a10.15,10.15,0,1,0-17.11-5.14L183,148.08a25.35,25.35,0,0,0-27.07,0L145.09,137.2a10.15,10.15,0,1,0-7.89,7.9L148.07,156a25.4,25.4,0,0,0,0,27.07L137.2,193.91a10.15,10.15,0,1,0,7.89,7.9L156,190.93a25.38,25.38,0,0,0,27.06,0L193.9,201.8a10.16,10.16,0,1,0,7.9-7.89L190.92,183a25.35,25.35,0,0,0,0-27.07L201.8,145.1A10.18,10.18,0,0,0,211,142.34Z"/></g></g></g></svg>